<?xml version="1.0" encoding="utf-8"?><svg width="21" height="15" fill="none" xmlns="http://www.w3.org/2000/svg" viewBox="0 0 21 15"><path fill-rule="evenodd" clip-rule="evenodd" d="M5.131 8.593V6.38c0-2.06-.943-3.02-2.967-3.02H2V1.78C2 1.125 2.53.593 3.179.593H17.82c.65 0 1.18.532 1.18 1.188v1.507h-.165c-1.975 0-3.008 1.556-3.008 3.093v2.212H5.13z" fill="#8F95AC" fill-opacity=".5"/><path fill-rule="evenodd" clip-rule="evenodd" d="M17.393 14.593c-.09 0-.163-.07-.163-.154v-.981H3.77v.981c0 .084-.074.154-.164.154H2.187c-.089 0-.163-.07-.163-.154v-.981h-.849C.526 13.458 0 12.967 0 12.361v-6.13c0-.477.192-.638.76-.638h1.85c.5 0 .754.26.754.77v3.163c0 .436.381.791.849.791h12.573c.469 0 .849-.355.849-.791V6.691c0-.257.064-1.098.913-1.098h1.61c.696 0 .842.596.842 1.098v5.67c0 .606-.527 1.097-1.177 1.097h-.847v.981c0 .083-.076.154-.165.154h-1.418z" fill="#8F95AC"/></svg>